<svg width="26" height="26" viewBox="0 0 26 26" fill="none" xmlns="http://www.w3.org/2000/svg">
<path d="M8.43937 8.66666L17.561 8.66666C17.9211 8.66614 18.274 8.76761 18.5789 8.95933C18.8837 9.15106 19.128 9.42519 19.2835 9.75C19.4656 10.1354 19.5357 10.5642 19.4859 10.9875C19.4361 11.4107 19.2684 11.8115 19.0019 12.1442L14.441 17.6692C14.262 17.8757 14.0408 18.0413 13.7922 18.1548C13.5436 18.2683 13.2735 18.3271 13.0002 18.3271C12.7269 18.3271 12.4568 18.2683 12.2082 18.1548C11.9596 18.0413 11.7384 17.8757 11.5594 17.6692L6.99853 12.1442C6.73202 11.8115 6.56432 11.4107 6.51452 10.9875C6.46472 10.5642 6.53483 10.1354 6.71687 9.75C6.87237 9.42519 7.11668 9.15106 7.42152 8.95933C7.72635 8.76761 8.07925 8.66614 8.43937 8.66666Z" fill="white"/>
</svg>
