<svg width="56" height="56" viewBox="0 0 56 56" fill="none" xmlns="http://www.w3.org/2000/svg">
<circle cx="28" cy="28" r="28" fill="#B872CD"/>
<path d="M20.4168 29.0834H33.2652L29.3327 33.8067C29.2416 33.9162 29.173 34.0426 29.1308 34.1787C29.0886 34.3147 29.0736 34.4578 29.0867 34.5996C29.1131 34.8861 29.2523 35.1503 29.4735 35.3342C29.6947 35.5181 29.98 35.6065 30.2664 35.5801C30.5529 35.5537 30.8171 35.4146 31.001 35.1934L36.4177 28.6934C36.4541 28.6417 36.4867 28.5873 36.5152 28.5309C36.5152 28.4767 36.5693 28.4442 36.591 28.39C36.6401 28.2658 36.6658 28.1336 36.6668 28C36.6658 27.8665 36.6401 27.7342 36.591 27.61C36.591 27.5559 36.5368 27.5234 36.5152 27.4692C36.4867 27.4127 36.4541 27.3584 36.4177 27.3067L31.001 20.8067C30.8991 20.6844 30.7716 20.5861 30.6274 20.5186C30.4832 20.4512 30.326 20.4164 30.1668 20.4167C29.9137 20.4162 29.6684 20.5044 29.4735 20.6659C29.3638 20.7568 29.2731 20.8685 29.2067 20.9945C29.1402 21.1206 29.0992 21.2585 29.0862 21.4004C29.0731 21.5423 29.0881 21.6854 29.1304 21.8214C29.1727 21.9575 29.2414 22.0839 29.3327 22.1934L33.2652 26.9167H20.4168C20.1295 26.9167 19.854 27.0308 19.6508 27.234C19.4476 27.4372 19.3335 27.7127 19.3335 28C19.3335 28.2873 19.4476 28.5629 19.6508 28.7661C19.854 28.9692 20.1295 29.0834 20.4168 29.0834Z" fill="white"/>
</svg>
