<svg width="24" height="24" viewBox="0 0 24 24" fill="none" xmlns="http://www.w3.org/2000/svg">
<path d="M16.2102 16H7.79019C7.45778 16.0005 7.13203 15.9068 6.85064 15.7298C6.56925 15.5529 6.34373 15.2998 6.20019 15C6.03216 14.6443 5.96744 14.2485 6.01341 13.8577C6.05938 13.467 6.21419 13.097 6.46019 12.79L10.6702 7.69C10.8354 7.49937 11.0397 7.34648 11.2691 7.2417C11.4986 7.13692 11.7479 7.08269 12.0002 7.08269C12.2525 7.08269 12.5018 7.13692 12.7312 7.2417C12.9607 7.34648 13.165 7.49937 13.3302 7.69L17.5402 12.79C17.7862 13.097 17.941 13.467 17.987 13.8577C18.0329 14.2485 17.9682 14.6443 17.8002 15C17.6566 15.2998 17.4311 15.5529 17.1497 15.7298C16.8684 15.9068 16.5426 16.0005 16.2102 16Z" fill="url(#paint0_linear)"/>
<defs>
<linearGradient id="paint0_linear" x1="18.0514" y1="7.08269" x2="7.06183" y2="10.9194" gradientUnits="userSpaceOnUse">
<stop stop-color="#3F5891"/>
<stop offset="0.0001" stop-color="#EE3665"/>
<stop offset="0.513888" stop-color="#9F65C2"/>
<stop offset="1" stop-color="#D782D9"/>
</linearGradient>
</defs>
</svg>
