<svg width="52" height="52" viewBox="0 0 52 52" fill="none" xmlns="http://www.w3.org/2000/svg">
<path d="M43.3333 30.3334H34.0167L35.5983 21.6667H43.3333C43.908 21.6667 44.4591 21.4384 44.8654 21.0321C45.2717 20.6258 45.5 20.0747 45.5 19.5C45.5 18.9254 45.2717 18.3743 44.8654 17.968C44.4591 17.5616 43.908 17.3334 43.3333 17.3334H36.3783L37.8733 9.07835C37.9324 8.78868 37.9316 8.48998 37.8709 8.20064C37.8102 7.9113 37.691 7.63745 37.5205 7.39592C37.35 7.1544 37.1319 6.95032 36.8795 6.79624C36.6272 6.64217 36.3461 6.54136 36.0533 6.50002C35.7623 6.43068 35.46 6.42238 35.1656 6.47564C34.8711 6.5289 34.5909 6.64257 34.3426 6.80948C34.0943 6.97639 33.8832 7.19293 33.7227 7.44544C33.5622 7.69796 33.4557 7.98099 33.41 8.27669L31.785 17.3334H23.3783L24.8733 9.07835C24.9324 8.78868 24.9316 8.48998 24.8709 8.20064C24.8102 7.9113 24.6909 7.63745 24.5205 7.39592C24.35 7.1544 24.1319 6.95032 23.8796 6.79624C23.6272 6.64217 23.3461 6.54136 23.0533 6.50002C22.7623 6.43068 22.46 6.42238 22.1656 6.47564C21.8711 6.5289 21.5909 6.64257 21.3426 6.80948C21.0943 6.97639 20.8832 7.19293 20.7227 7.44544C20.5622 7.69796 20.4557 7.98099 20.41 8.27669L18.785 17.3334H8.66667C8.09203 17.3334 7.54093 17.5616 7.1346 17.968C6.72827 18.3743 6.5 18.9254 6.5 19.5C6.5 20.0747 6.72827 20.6258 7.1346 21.0321C7.54093 21.4384 8.09203 21.6667 8.66667 21.6667H17.9833L16.4017 30.3334H8.66667C8.09203 30.3334 7.54093 30.5616 7.1346 30.968C6.72827 31.3743 6.5 31.9254 6.5 32.5C6.5 33.0747 6.72827 33.6258 7.1346 34.0321C7.54093 34.4384 8.09203 34.6667 8.66667 34.6667H15.6217L14.1267 42.9217C14.0676 43.2114 14.0684 43.5101 14.1291 43.7994C14.1898 44.0887 14.3091 44.3626 14.4795 44.6041C14.65 44.8456 14.8681 45.0497 15.1205 45.2038C15.3728 45.3579 15.6539 45.4587 15.9467 45.5C16.2377 45.5694 16.54 45.5777 16.8344 45.5244C17.1289 45.4711 17.4091 45.3575 17.6574 45.1906C17.9057 45.0237 18.1168 44.8071 18.2773 44.5546C18.4378 44.3021 18.5443 44.0191 18.59 43.7234L20.215 34.6667H28.6217L27.1267 42.9217C27.0676 43.2114 27.0684 43.5101 27.1291 43.7994C27.1898 44.0887 27.3091 44.3626 27.4795 44.6041C27.65 44.8456 27.8681 45.0497 28.1205 45.2038C28.3728 45.3579 28.6539 45.4587 28.9467 45.5C29.2377 45.5694 29.54 45.5777 29.8344 45.5244C30.1289 45.4711 30.4091 45.3575 30.6574 45.1906C30.9057 45.0237 31.1168 44.8071 31.2773 44.5546C31.4378 44.3021 31.5443 44.0191 31.59 43.7234L33.215 34.6667H43.3333C43.908 34.6667 44.4591 34.4384 44.8654 34.0321C45.2717 33.6258 45.5 33.0747 45.5 32.5C45.5 31.9254 45.2717 31.3743 44.8654 30.968C44.4591 30.5616 43.908 30.3334 43.3333 30.3334ZM21.0167 30.3334L22.5983 21.6667H30.9833L29.4017 30.3334H21.0167Z" fill="url(#paint0_linear)"/>
<defs>
<linearGradient id="paint0_linear" x1="45.6625" y1="6.44104" x2="8.11218" y2="16.1517" gradientUnits="userSpaceOnUse">
<stop stop-color="#3F5891"/>
<stop offset="0.0001" stop-color="#EE3665"/>
<stop offset="0.513888" stop-color="#9F65C2"/>
<stop offset="1" stop-color="#D782D9"/>
</linearGradient>
</defs>
</svg>
