<svg width="52" height="52" viewBox="0 0 52 52" fill="none" xmlns="http://www.w3.org/2000/svg">
<path d="M39 6.5H13C11.2761 6.5 9.62279 7.18482 8.40381 8.40381C7.18482 9.62279 6.5 11.2761 6.5 13V39C6.5 40.7239 7.18482 42.3772 8.40381 43.5962C9.62279 44.8152 11.2761 45.5 13 45.5H39C40.7239 45.5 42.3772 44.8152 43.5962 43.5962C44.8152 42.3772 45.5 40.7239 45.5 39V13C45.5 11.2761 44.8152 9.62279 43.5962 8.40381C42.3772 7.18482 40.7239 6.5 39 6.5ZM26 13C26.4285 13 26.8474 13.1271 27.2037 13.3651C27.56 13.6032 27.8377 13.9416 28.0017 14.3375C28.1657 14.7334 28.2086 15.1691 28.125 15.5894C28.0414 16.0097 27.8351 16.3957 27.5321 16.6987C27.2291 17.0017 26.843 17.2081 26.4227 17.2917C26.0024 17.3753 25.5668 17.3324 25.1709 17.1684C24.7749 17.0044 24.4366 16.7267 24.1985 16.3704C23.9604 16.0141 23.8333 15.5952 23.8333 15.1667C23.8333 14.592 24.0616 14.0409 24.4679 13.6346C24.8743 13.2283 25.4254 13 26 13ZM17.3333 13C17.7619 13 18.1808 13.1271 18.5371 13.3651C18.8934 13.6032 19.1711 13.9416 19.3351 14.3375C19.4991 14.7334 19.542 15.1691 19.4584 15.5894C19.3748 16.0097 19.1684 16.3957 18.8654 16.6987C18.5624 17.0017 18.1763 17.2081 17.756 17.2917C17.3357 17.3753 16.9001 17.3324 16.5042 17.1684C16.1083 17.0044 15.7699 16.7267 15.5318 16.3704C15.2937 16.0141 15.1667 15.5952 15.1667 15.1667C15.1667 14.592 15.3949 14.0409 15.8013 13.6346C16.2076 13.2283 16.7587 13 17.3333 13ZM41.1667 39C41.1667 39.5746 40.9384 40.1257 40.5321 40.5321C40.1257 40.9384 39.5746 41.1667 39 41.1667H13C12.4254 41.1667 11.8743 40.9384 11.4679 40.5321C11.0616 40.1257 10.8333 39.5746 10.8333 39V23.8333H41.1667V39Z" fill="url(#paint0_linear)"/>
<defs>
<linearGradient id="paint0_linear" x1="45.6625" y1="6.5" x2="8.12644" y2="16.2363" gradientUnits="userSpaceOnUse">
<stop stop-color="#3F5891"/>
<stop offset="0.0001" stop-color="#EE3665"/>
<stop offset="0.513888" stop-color="#9F65C2"/>
<stop offset="1" stop-color="#D782D9"/>
</linearGradient>
</defs>
</svg>
