<svg width="56" height="56" viewBox="0 0 56 56" fill="none" xmlns="http://www.w3.org/2000/svg">
<circle cx="28" cy="28" r="28" fill="url(#paint0_linear)"/>
<path d="M23.4394 23.6667L32.561 23.6667C32.9211 23.6661 33.274 23.7676 33.5789 23.9593C33.8837 24.1511 34.128 24.4252 34.2835 24.75C34.4656 25.1354 34.5357 25.5642 34.4859 25.9875C34.4361 26.4107 34.2684 26.8115 34.0019 27.1442L29.441 32.6692C29.262 32.8757 29.0408 33.0413 28.7922 33.1548C28.5436 33.2683 28.2735 33.3271 28.0002 33.3271C27.7269 33.3271 27.4568 33.2683 27.2082 33.1548C26.9596 33.0413 26.7384 32.8757 26.5594 32.6692L21.9985 27.1442C21.732 26.8115 21.5643 26.4107 21.5145 25.9875C21.4647 25.5642 21.5348 25.1354 21.7169 24.75C21.8724 24.4252 22.1167 24.1511 22.4215 23.9593C22.7264 23.7676 23.0793 23.6661 23.4394 23.6667Z" fill="white"/>
<defs>
<linearGradient id="paint0_linear" x1="28" y1="0" x2="28" y2="56" gradientUnits="userSpaceOnUse">
<stop stop-color="#BABABA"/>
<stop offset="1" stop-color="#CACACA"/>
</linearGradient>
</defs>
</svg>
