<svg width="56" height="56" viewBox="0 0 56 56" fill="none" xmlns="http://www.w3.org/2000/svg">
<circle cx="28" cy="28" r="28" fill="#B872CD"/>
<path d="M32.5606 32.3333H23.439C23.0789 32.3339 22.726 32.2324 22.4211 32.0407C22.1163 31.8489 21.872 31.5748 21.7165 31.25C21.5344 30.8646 21.4643 30.4358 21.5141 30.0125C21.5639 29.5892 21.7316 29.1885 21.9981 28.8558L26.559 23.3308C26.738 23.1243 26.9592 22.9587 27.2078 22.8452C27.4564 22.7317 27.7265 22.6729 27.9998 22.6729C28.2731 22.6729 28.5432 22.7317 28.7918 22.8452C29.0404 22.9587 29.2616 23.1243 29.4406 23.3308L34.0015 28.8558C34.268 29.1885 34.4357 29.5892 34.4855 30.0125C34.5353 30.4358 34.4652 30.8646 34.2831 31.25C34.1276 31.5748 33.8833 31.8489 33.5785 32.0407C33.2736 32.2324 32.9207 32.3339 32.5606 32.3333Z" fill="white"/>
</svg>
