<svg width="60" height="59" viewBox="0 0 60 59" fill="none" xmlns="http://www.w3.org/2000/svg">
<ellipse cx="30" cy="29.5" rx="30" ry="29.5" fill="white"/>
<g clip-path="url(#clip0)">
<path d="M31.0833 25.5632C31.9453 25.5632 32.7719 25.9056 33.3814 26.5151C33.9909 27.1246 34.3333 27.9513 34.3333 28.8132C34.3333 29.1005 34.4475 29.3761 34.6506 29.5792C34.8538 29.7824 35.1293 29.8965 35.4167 29.8965C35.704 29.8965 35.9795 29.7824 36.1827 29.5792C36.3859 29.3761 36.5 29.1005 36.5 28.8132C36.5 27.3766 35.9293 25.9989 34.9135 24.9831C33.8977 23.9672 32.5199 23.3965 31.0833 23.3965C30.796 23.3965 30.5205 23.5107 30.3173 23.7138C30.1141 23.917 30 24.1926 30 24.4799C30 24.7672 30.1141 25.0427 30.3173 25.2459C30.5205 25.4491 30.796 25.5632 31.0833 25.5632Z" fill="url(#paint0_linear)"/>
<path d="M31.0833 21.2299C33.0946 21.2299 35.0234 22.0288 36.4456 23.451C37.8677 24.8731 38.6667 26.802 38.6667 28.8132C38.6667 29.1005 38.7808 29.3761 38.984 29.5792C39.1871 29.7824 39.4627 29.8965 39.75 29.8965C40.0373 29.8965 40.3129 29.7824 40.516 29.5792C40.7192 29.3761 40.8333 29.1005 40.8333 28.8132C40.8333 26.2273 39.8061 23.7474 37.9776 21.9189C36.1491 20.0904 33.6692 19.0632 31.0833 19.0632C30.796 19.0632 30.5205 19.1773 30.3173 19.3805C30.1141 19.5837 30 19.8592 30 20.1465C30 20.4339 30.1141 20.7094 30.3173 20.9126C30.5205 21.1157 30.796 21.2299 31.0833 21.2299Z" fill="url(#paint1_linear)"/>
<path d="M40.5667 34.1324C40.5071 33.9585 40.4043 33.8026 40.2678 33.6794C40.1314 33.5562 39.9658 33.4698 39.7867 33.4282L33.2867 31.944C33.1103 31.904 32.9267 31.9089 32.7526 31.9581C32.5785 32.0073 32.4195 32.0993 32.2901 32.2257C32.1384 32.3665 32.1276 32.3774 31.4234 33.7207C29.0869 32.644 27.2146 30.7641 26.1476 28.4232C27.5234 27.7299 27.5342 27.7299 27.6751 27.5674C27.8015 27.438 27.8935 27.279 27.9427 27.1049C27.9919 26.9308 27.9967 26.7471 27.9567 26.5707L26.4726 20.1465C26.431 19.9675 26.3446 19.8019 26.2214 19.6654C26.0982 19.529 25.9423 19.4261 25.7684 19.3665C25.5154 19.2762 25.2542 19.2109 24.9884 19.1715C24.7146 19.108 24.4352 19.0718 24.1542 19.0632C22.8326 19.0632 21.565 19.5882 20.6305 20.5228C19.6959 21.4573 19.1709 22.7249 19.1709 24.0465C19.1766 28.4695 20.9362 32.7096 24.0637 35.8371C27.1912 38.9646 31.4313 40.7241 35.8542 40.7299C36.5087 40.7299 37.1567 40.601 37.7613 40.3505C38.3659 40.1001 38.9152 39.733 39.378 39.2703C39.8407 38.8075 40.2078 38.2582 40.4582 37.6536C40.7087 37.049 40.8376 36.401 40.8376 35.7465C40.8379 35.4708 40.8162 35.1955 40.7726 34.9232C40.727 34.6541 40.6582 34.3895 40.5667 34.1324Z" fill="url(#paint2_linear)"/>
</g>
<defs>
<linearGradient id="paint0_linear" x1="36.5271" y1="23.3965" x2="30.2711" y2="25.0193" gradientUnits="userSpaceOnUse">
<stop stop-color="#3F5891"/>
<stop offset="0.0001" stop-color="#EE3665"/>
<stop offset="0.513888" stop-color="#9F65C2"/>
<stop offset="1" stop-color="#D782D9"/>
</linearGradient>
<linearGradient id="paint1_linear" x1="40.8785" y1="19.0632" x2="30.4518" y2="21.7677" gradientUnits="userSpaceOnUse">
<stop stop-color="#3F5891"/>
<stop offset="0.0001" stop-color="#EE3665"/>
<stop offset="0.513888" stop-color="#9F65C2"/>
<stop offset="1" stop-color="#D782D9"/>
</linearGradient>
<linearGradient id="paint2_linear" x1="40.9278" y1="19.0632" x2="20.0745" y2="24.4723" gradientUnits="userSpaceOnUse">
<stop stop-color="#3F5891"/>
<stop offset="0.0001" stop-color="#EE3665"/>
<stop offset="0.513888" stop-color="#9F65C2"/>
<stop offset="1" stop-color="#D782D9"/>
</linearGradient>
<clipPath id="clip0">
<rect width="26" height="26" fill="white" transform="translate(17 16)"/>
</clipPath>
</defs>
</svg>
