<svg width="43" height="40" viewBox="0 0 43 40" fill="none" xmlns="http://www.w3.org/2000/svg">
<path d="M13.6398 0H29.1428C36.4817 0 42.4311 5.65535 42.4311 12.6316V27.3684C42.4311 34.3447 36.4817 40 29.1428 40H13.6398C6.30092 40 0.351563 34.3447 0.351562 27.3684V12.6316C0.351562 5.65535 6.30092 0 13.6398 0Z" fill="white"/>
<path d="M13.4168 21.0833H26.2652L22.3327 25.8066C22.2416 25.9162 22.173 26.0426 22.1308 26.1786C22.0886 26.3147 22.0736 26.4577 22.0867 26.5995C22.1131 26.886 22.2523 27.1502 22.4735 27.3341C22.6947 27.518 22.98 27.6065 23.2664 27.5801C23.5529 27.5537 23.8171 27.4145 24.001 27.1933L29.4177 20.6933C29.4541 20.6416 29.4867 20.5873 29.5152 20.5308C29.5152 20.4766 29.5693 20.4441 29.591 20.39C29.6401 20.2657 29.6658 20.1335 29.6668 20C29.6658 19.8664 29.6401 19.7342 29.591 19.61C29.591 19.5558 29.5368 19.5233 29.5152 19.4691C29.4867 19.4126 29.4541 19.3583 29.4177 19.3066L24.001 12.8066C23.8991 12.6843 23.7716 12.586 23.6274 12.5186C23.4832 12.4512 23.326 12.4164 23.1668 12.4166C22.9137 12.4161 22.6684 12.5043 22.4735 12.6658C22.3638 12.7567 22.2731 12.8684 22.2067 12.9945C22.1402 13.1205 22.0992 13.2584 22.0862 13.4003C22.0731 13.5422 22.0881 13.6853 22.1304 13.8214C22.1727 13.9574 22.2414 14.0838 22.3327 14.1933L26.2652 18.9166H13.4168C13.1295 18.9166 12.854 19.0308 12.6508 19.2339C12.4476 19.4371 12.3335 19.7126 12.3335 20C12.3335 20.2873 12.4476 20.5628 12.6508 20.766C12.854 20.9692 13.1295 21.0833 13.4168 21.0833Z" fill="#CE7DD5"/>
</svg>
