<svg width="20" height="20" viewBox="0 0 20 20" fill="none" xmlns="http://www.w3.org/2000/svg">
<path d="M9.99984 1.66666C8.35166 1.66666 6.7405 2.1554 5.37009 3.07108C3.99968 3.98675 2.93158 5.28824 2.30084 6.81096C1.67011 8.33368 1.50509 10.0092 1.82663 11.6257C2.14817 13.2422 2.94185 14.7271 4.10728 15.8925C5.27272 17.058 6.75758 17.8517 8.37409 18.1732C9.9906 18.4947 11.6662 18.3297 13.1889 17.699C14.7116 17.0683 16.0131 16.0001 16.9288 14.6297C17.8444 13.2593 18.3332 11.6482 18.3332 9.99999C18.3332 8.90564 18.1176 7.82201 17.6988 6.81096C17.28 5.79991 16.6662 4.88125 15.8924 4.10743C15.1186 3.33361 14.1999 2.71978 13.1889 2.30099C12.1778 1.8822 11.0942 1.66666 9.99984 1.66666ZM10.8332 13.3333C10.8332 13.5543 10.7454 13.7663 10.5891 13.9226C10.4328 14.0789 10.2209 14.1667 9.99984 14.1667C9.77883 14.1667 9.56687 14.0789 9.41059 13.9226C9.25431 13.7663 9.16651 13.5543 9.16651 13.3333V9.16666C9.16651 8.94564 9.25431 8.73368 9.41059 8.5774C9.56687 8.42112 9.77883 8.33332 9.99984 8.33332C10.2209 8.33332 10.4328 8.42112 10.5891 8.5774C10.7454 8.73368 10.8332 8.94564 10.8332 9.16666V13.3333ZM9.99984 7.49999C9.83502 7.49999 9.67391 7.45112 9.53687 7.35955C9.39982 7.26798 9.29301 7.13783 9.22994 6.98556C9.16687 6.83329 9.15037 6.66573 9.18252 6.50408C9.21467 6.34243 9.29404 6.19394 9.41059 6.0774C9.52713 5.96086 9.67562 5.88149 9.83727 5.84933C9.99892 5.81718 10.1665 5.83368 10.3187 5.89676C10.471 5.95983 10.6012 6.06664 10.6927 6.20368C10.7843 6.34072 10.8332 6.50184 10.8332 6.66666C10.8332 6.88767 10.7454 7.09963 10.5891 7.25591C10.4328 7.41219 10.2209 7.49999 9.99984 7.49999Z" fill="#8FA4BD"/>
</svg>
