<svg width="20" height="20" viewBox="0 0 20 20" fill="none" xmlns="http://www.w3.org/2000/svg">
<path d="M10 12.9167C10.6904 12.9167 11.25 12.357 11.25 11.6667C11.25 10.9763 10.6904 10.4167 10 10.4167C9.30964 10.4167 8.75 10.9763 8.75 11.6667C8.75 12.357 9.30964 12.9167 10 12.9167Z" fill="#B872CD"/>
<path d="M15.8332 5.83333H13.3332V4.58333C13.3332 4.0308 13.1137 3.5009 12.723 3.11019C12.3323 2.71949 11.8024 2.5 11.2498 2.5H8.74984C8.1973 2.5 7.6674 2.71949 7.2767 3.11019C6.886 3.5009 6.6665 4.0308 6.6665 4.58333V5.83333H4.1665C3.50346 5.83333 2.86758 6.09673 2.39874 6.56557C1.9299 7.03441 1.6665 7.67029 1.6665 8.33333V15C1.6665 15.663 1.9299 16.2989 2.39874 16.7678C2.86758 17.2366 3.50346 17.5 4.1665 17.5H15.8332C16.4962 17.5 17.1321 17.2366 17.6009 16.7678C18.0698 16.2989 18.3332 15.663 18.3332 15V8.33333C18.3332 7.67029 18.0698 7.03441 17.6009 6.56557C17.1321 6.09673 16.4962 5.83333 15.8332 5.83333ZM8.33317 4.58333C8.33317 4.47283 8.37707 4.36685 8.45521 4.28871C8.53335 4.21057 8.63933 4.16667 8.74984 4.16667H11.2498C11.3603 4.16667 11.4663 4.21057 11.5445 4.28871C11.6226 4.36685 11.6665 4.47283 11.6665 4.58333V5.83333H8.33317V4.58333ZM9.99984 14.5833C9.42298 14.5833 8.85907 14.4123 8.37942 14.0918C7.89978 13.7713 7.52594 13.3158 7.30519 12.7828C7.08443 12.2499 7.02667 11.6634 7.13921 11.0977C7.25175 10.5319 7.52954 10.0122 7.93744 9.60427C8.34535 9.19637 8.86505 8.91858 9.43082 8.80604C9.9966 8.6935 10.583 8.75126 11.116 8.97202C11.6489 9.19277 12.1045 9.56661 12.425 10.0463C12.7454 10.5259 12.9165 11.0898 12.9165 11.6667C12.9165 12.4402 12.6092 13.1821 12.0622 13.7291C11.5153 14.276 10.7734 14.5833 9.99984 14.5833Z" fill="#B872CD"/>
</svg>
