<svg width="24" height="24" viewBox="0 0 24 24" fill="none" xmlns="http://www.w3.org/2000/svg">
<path d="M12 13.5C12.8284 13.5 13.5 12.8284 13.5 12C13.5 11.1716 12.8284 10.5 12 10.5C11.1716 10.5 10.5 11.1716 10.5 12C10.5 12.8284 11.1716 13.5 12 13.5Z" fill="url(#paint0_linear)"/>
<path d="M21.8701 11.5C21.2301 10.39 17.7101 4.82 11.7301 5C6.20007 5.14 3.00007 10 2.13007 11.5C2.0423 11.652 1.99609 11.8245 1.99609 12C1.99609 12.1755 2.0423 12.348 2.13007 12.5C2.76007 13.59 6.13007 19 12.0201 19H12.2701C17.8001 18.86 21.0101 14 21.8701 12.5C21.9578 12.348 22.004 12.1755 22.004 12C22.004 11.8245 21.9578 11.652 21.8701 11.5ZM12.0001 15.5C11.3078 15.5 10.6311 15.2947 10.0556 14.9101C9.48 14.5256 9.0314 13.9789 8.76649 13.3394C8.50158 12.6999 8.43227 11.9961 8.56732 11.3172C8.70237 10.6383 9.03571 10.0146 9.52519 9.52513C10.0147 9.03564 10.6383 8.7023 11.3173 8.56725C11.9962 8.4322 12.6999 8.50152 13.3395 8.76642C13.979 9.03133 14.5256 9.47993 14.9102 10.0555C15.2948 10.6311 15.5001 11.3078 15.5001 12C15.5001 12.9283 15.1313 13.8185 14.4749 14.4749C13.8186 15.1313 12.9283 15.5 12.0001 15.5Z" fill="url(#paint1_linear)"/>
<defs>
<linearGradient id="paint0_linear" x1="13.5125" y1="10.5" x2="10.6251" y2="11.2489" gradientUnits="userSpaceOnUse">
<stop stop-color="#3F5891"/>
<stop offset="0.0001" stop-color="#EE3665"/>
<stop offset="0.513888" stop-color="#9F65C2"/>
<stop offset="1" stop-color="#D782D9"/>
</linearGradient>
<linearGradient id="paint1_linear" x1="22.0874" y1="4.99574" x2="4.0166" y2="11.6925" gradientUnits="userSpaceOnUse">
<stop stop-color="#3F5891"/>
<stop offset="0.0001" stop-color="#EE3665"/>
<stop offset="0.513888" stop-color="#9F65C2"/>
<stop offset="1" stop-color="#D782D9"/>
</linearGradient>
</defs>
</svg>
