<svg width="60" height="59" viewBox="0 0 60 59" fill="none" xmlns="http://www.w3.org/2000/svg">
<ellipse cx="30" cy="29.5" rx="30" ry="29.5" fill="white"/>
<g clip-path="url(#clip0)">
<path d="M31.8093 40.8335H31.7443C31.5058 40.8192 31.2788 40.7264 31.0986 40.5696C30.9183 40.4129 30.7949 40.201 30.7476 39.9669L29.0793 31.766C29.0368 31.5578 28.9341 31.3667 28.7838 31.2165C28.6336 31.0662 28.4425 30.9635 28.2343 30.921L20.0334 29.2527C19.7989 29.2061 19.5863 29.0832 19.4289 28.9032C19.2715 28.7231 19.1781 28.496 19.1632 28.2573C19.1484 28.0187 19.2129 27.7818 19.3468 27.5836C19.4807 27.3854 19.6764 27.2372 19.9034 27.1619L37.2368 21.3877C37.4313 21.3074 37.6451 21.2854 37.8519 21.3246C38.0587 21.3638 38.2496 21.4624 38.4013 21.6084C38.553 21.7543 38.6589 21.9413 38.706 22.1464C38.7532 22.3516 38.7395 22.566 38.6668 22.7635L32.8926 40.0969C32.8172 40.3211 32.6705 40.5145 32.4749 40.6475C32.2793 40.7805 32.0455 40.8459 31.8093 40.8335Z" fill="url(#paint0_linear)"/>
</g>
<defs>
<linearGradient id="paint0_linear" x1="38.8151" y1="21.3057" x2="19.9826" y2="26.2014" gradientUnits="userSpaceOnUse">
<stop stop-color="#3F5891"/>
<stop offset="0.0001" stop-color="#EE3665"/>
<stop offset="0.513888" stop-color="#9F65C2"/>
<stop offset="1" stop-color="#D782D9"/>
</linearGradient>
<clipPath id="clip0">
<rect width="26" height="26" fill="white" transform="translate(17 16)"/>
</clipPath>
</defs>
</svg>
