<svg width="58" height="58" viewBox="0 0 58 58" fill="none" xmlns="http://www.w3.org/2000/svg">
<g clip-path="url(#clip0)">
<path d="M31.4167 21.3333C33.3395 21.3333 35.1836 22.0972 36.5432 23.4568C37.9028 24.8164 38.6667 26.6605 38.6667 28.5833C38.6667 29.2243 38.9213 29.839 39.3745 30.2922C39.8277 30.7454 40.4424 31 41.0833 31C41.7243 31 42.339 30.7454 42.7922 30.2922C43.2454 29.839 43.5 29.2243 43.5 28.5833C43.5 25.3786 42.2269 22.3052 39.9609 20.0391C37.6948 17.7731 34.6214 16.5 31.4167 16.5C30.7757 16.5 30.161 16.7546 29.7078 17.2078C29.2546 17.661 29 18.2757 29 18.9167C29 19.5576 29.2546 20.1723 29.7078 20.6255C30.161 21.0787 30.7757 21.3333 31.4167 21.3333Z" fill="url(#paint0_linear)"/>
<path d="M31.4167 11.6666C35.9032 11.6666 40.2061 13.4489 43.3786 16.6214C46.551 19.7939 48.3333 24.0967 48.3333 28.5833C48.3333 29.2243 48.5879 29.8389 49.0412 30.2922C49.4944 30.7454 50.1091 31 50.75 31C51.3909 31 52.0056 30.7454 52.4588 30.2922C52.9121 29.8389 53.1667 29.2243 53.1667 28.5833C53.1667 22.8149 50.8752 17.2827 46.7962 13.2037C42.7173 9.12482 37.1851 6.83331 31.4167 6.83331C30.7757 6.83331 30.161 7.08793 29.7078 7.54114C29.2546 7.99435 29 8.60904 29 9.24998C29 9.89092 29.2546 10.5056 29.7078 10.9588C30.161 11.412 30.7757 11.6666 31.4167 11.6666Z" fill="url(#paint1_linear)"/>
<path d="M52.5627 40.4491C52.4297 40.0612 52.2003 39.7134 51.8959 39.4386C51.5915 39.1638 51.2222 38.971 50.8227 38.8783L36.3227 35.5675C35.9291 35.4782 35.5194 35.489 35.131 35.5987C34.7427 35.7085 34.388 35.9138 34.0993 36.1958C33.761 36.51 33.7368 36.5341 32.166 39.5308C26.9537 37.129 22.7772 32.9354 20.3968 27.7133C23.466 26.1666 23.4902 26.1666 23.8043 25.8041C24.0864 25.5155 24.2916 25.1608 24.4014 24.7724C24.5112 24.3841 24.5219 23.9744 24.4327 23.5808L21.1218 9.24998C21.0291 8.85049 20.8363 8.48117 20.5615 8.17677C20.2867 7.87236 19.939 7.6429 19.551 7.50998C18.9866 7.3084 18.4038 7.16271 17.811 7.07498C17.2002 6.93335 16.5769 6.8524 15.9502 6.83331C13.0018 6.83331 10.1743 8.00453 8.08949 10.0893C6.00471 12.1741 4.8335 15.0017 4.8335 17.95C4.84628 27.8165 8.77142 37.2753 15.7481 44.252C22.7248 51.2287 32.1836 55.1539 42.0502 55.1666C43.51 55.1666 44.9556 54.8791 46.3043 54.3204C47.6531 53.7618 48.8786 52.9429 49.9108 51.9107C50.9431 50.8784 51.762 49.6529 52.3206 48.3041C52.8793 46.9554 53.1668 45.5098 53.1668 44.05C53.1676 43.4349 53.1191 42.8207 53.0218 42.2133C52.9203 41.613 52.7666 41.0228 52.5627 40.4491Z" fill="url(#paint2_linear)"/>
</g>
<defs>
<linearGradient id="paint0_linear" x1="43.5604" y1="16.5" x2="29.6047" y2="20.1199" gradientUnits="userSpaceOnUse">
<stop stop-color="#3F5891"/>
<stop offset="0.0001" stop-color="#EE3665"/>
<stop offset="0.513888" stop-color="#9F65C2"/>
<stop offset="1" stop-color="#D782D9"/>
</linearGradient>
<linearGradient id="paint1_linear" x1="53.2674" y1="6.83332" x2="30.0078" y2="12.8665" gradientUnits="userSpaceOnUse">
<stop stop-color="#3F5891"/>
<stop offset="0.0001" stop-color="#EE3665"/>
<stop offset="0.513888" stop-color="#9F65C2"/>
<stop offset="1" stop-color="#D782D9"/>
</linearGradient>
<linearGradient id="paint2_linear" x1="53.3682" y1="6.83332" x2="6.84917" y2="18.8997" gradientUnits="userSpaceOnUse">
<stop stop-color="#3F5891"/>
<stop offset="0.0001" stop-color="#EE3665"/>
<stop offset="0.513888" stop-color="#9F65C2"/>
<stop offset="1" stop-color="#D782D9"/>
</linearGradient>
<clipPath id="clip0">
<rect width="58" height="58" fill="white"/>
</clipPath>
</defs>
</svg>
