<svg width="58" height="58" viewBox="0 0 58 58" fill="none" xmlns="http://www.w3.org/2000/svg">
<path d="M33.0359 53.1671H32.8909C32.359 53.135 31.8526 52.9281 31.4505 52.5784C31.0484 52.2288 30.7731 51.756 30.6675 51.2337L26.9459 32.9396C26.8511 32.4751 26.6219 32.0488 26.2868 31.7137C25.9516 31.3785 25.5253 31.1493 25.0609 31.0546L6.7667 27.3329C6.24342 27.229 5.76923 26.9548 5.41809 26.5532C5.06694 26.1515 4.85857 25.645 4.82546 25.1125C4.79235 24.58 4.93637 24.0516 5.23506 23.6095C5.53375 23.1675 5.97032 22.8367 6.4767 22.6687L45.1434 9.78791C45.5774 9.6087 46.0542 9.55981 46.5156 9.64723C46.977 9.73464 47.4029 9.95458 47.7412 10.2801C48.0796 10.6057 48.3158 11.0228 48.421 11.4804C48.5261 11.9381 48.4957 12.4165 48.3334 12.8571L35.4525 51.5237C35.2844 52.0239 34.9571 52.4554 34.5207 52.7521C34.0844 53.0488 33.5629 53.1946 33.0359 53.1671Z" fill="url(#paint0_linear)"/>
<defs>
<linearGradient id="paint0_linear" x1="48.6643" y1="9.60499" x2="6.65335" y2="20.5261" gradientUnits="userSpaceOnUse">
<stop stop-color="#3F5891"/>
<stop offset="0.0001" stop-color="#EE3665"/>
<stop offset="0.513888" stop-color="#9F65C2"/>
<stop offset="1" stop-color="#D782D9"/>
</linearGradient>
</defs>
</svg>
