<svg width="58" height="58" viewBox="0 0 58 58" fill="none" xmlns="http://www.w3.org/2000/svg">
<path d="M29.0002 7.33337C24.7149 7.33337 20.5259 8.6041 16.9628 10.9849C13.3998 13.3656 10.6227 16.7495 8.98278 20.7086C7.34288 24.6676 6.91381 29.0241 7.74982 33.227C8.58584 37.4299 10.6494 41.2906 13.6795 44.3207C16.7097 47.3508 20.5703 49.4144 24.7732 50.2504C28.9761 51.0864 33.3326 50.6573 37.2916 49.0174C41.2507 47.3775 44.6346 44.6005 47.0153 41.0374C49.3961 37.4743 50.6668 33.2853 50.6668 29C50.6668 26.1547 50.1064 23.3373 49.0176 20.7086C47.9287 18.0798 46.3328 15.6913 44.3208 13.6794C42.3089 11.6675 39.9204 10.0715 37.2916 8.98265C34.6629 7.8938 31.8455 7.33337 29.0002 7.33337ZM37.6668 31.1667H29.0002C28.4255 31.1667 27.8744 30.9384 27.4681 30.5321C27.0618 30.1258 26.8335 29.5747 26.8335 29V20.3334C26.8335 19.7587 27.0618 19.2076 27.4681 18.8013C27.8744 18.395 28.4255 18.1667 29.0002 18.1667C29.5748 18.1667 30.1259 18.395 30.5322 18.8013C30.9386 19.2076 31.1668 19.7587 31.1668 20.3334V26.8334H37.6668C38.2415 26.8334 38.7926 27.0616 39.1989 27.468C39.6052 27.8743 39.8335 28.4254 39.8335 29C39.8335 29.5747 39.6052 30.1258 39.1989 30.5321C38.7926 30.9384 38.2415 31.1667 37.6668 31.1667Z" fill="url(#paint0_linear)"/>
<defs>
<linearGradient id="paint0_linear" x1="50.8474" y1="7.33338" x2="9.14065" y2="18.1515" gradientUnits="userSpaceOnUse">
<stop stop-color="#3F5891"/>
<stop offset="0.0001" stop-color="#EE3665"/>
<stop offset="0.513888" stop-color="#9F65C2"/>
<stop offset="1" stop-color="#D782D9"/>
</linearGradient>
</defs>
</svg>
