<svg width="30" height="31" viewBox="0 0 30 31" fill="none" xmlns="http://www.w3.org/2000/svg">
<rect opacity="0.01" y="0.199997" width="30" height="30.8" fill="white"/>
<path fill-rule="evenodd" clip-rule="evenodd" d="M14.2 22.1707C10.2236 22.1707 7 18.8611 7 14.7787C7 10.6962 10.2236 7.38666 14.2 7.38666C18.1765 7.38666 21.4 10.6962 21.4 14.7787C21.4 16.524 20.8108 18.1281 19.8255 19.3927L22.7657 22.4112C23.0781 22.732 23.0781 23.252 22.7657 23.5728C22.4533 23.8935 21.9467 23.8935 21.6343 23.5728L18.6941 20.5542C17.4624 21.5658 15.9 22.1707 14.2 22.1707ZM18.2331 18.7674C18.2057 18.789 18.1794 18.8127 18.1543 18.8384C18.1292 18.8642 18.1062 18.8912 18.0851 18.9193C17.0782 19.9154 15.7087 20.528 14.2 20.528C11.1072 20.528 8.59998 17.9539 8.59998 14.7787C8.59998 11.6034 11.1072 9.02933 14.2 9.02933C17.2928 9.02933 19.8 11.6034 19.8 14.7787C19.8 16.3277 19.2033 17.7336 18.2331 18.7674Z" fill="#CE4A8B"/>
</svg>
