<svg width="17" height="17" viewBox="0 0 17 17" fill="none" xmlns="http://www.w3.org/2000/svg">
<path fill-rule="evenodd" clip-rule="evenodd" d="M12.6314 10.8681L16.1457 14.415C16.6181 14.8918 16.6164 15.6608 16.1417 16.1354C15.664 16.6132 14.8888 16.6114 14.4133 16.1315L10.9214 12.6073L10.8056 12.6897C9.69766 13.3822 8.54263 13.7301 7.34504 13.7301C5.59406 13.7301 4.09308 13.1018 2.85662 11.8515C1.62085 10.6018 1 9.09503 1 7.34504C1 5.59466 1.62117 4.09408 2.85763 2.85763C4.09408 1.62117 5.59466 1 7.34504 1C9.09542 1 10.596 1.62117 11.8325 2.85763C13.0689 4.09408 13.6901 5.59466 13.6901 7.34504C13.6901 8.56692 13.3568 9.7076 12.6921 10.7618L12.6314 10.8681ZM10.1687 4.51143C9.39293 3.73222 8.45677 3.34504 7.34754 3.34504C6.2383 3.34504 5.30215 3.73222 4.52634 4.51143C3.75054 5.29065 3.36507 6.23093 3.36507 7.34504C3.36507 8.45916 3.75054 9.39944 4.52634 10.1787C5.30215 10.9579 6.2383 11.345 7.34754 11.345C8.45677 11.345 9.39293 10.9579 10.1687 10.1787C10.9685 9.37539 11.3651 8.43486 11.3651 7.34504C11.3651 6.25522 10.9685 5.31469 10.1687 4.51143Z" fill="#9C9EB9"/>
<path d="M12.6314 10.8681L12.1973 10.62C12.0858 10.8151 12.1181 11.0605 12.2762 11.22L12.6314 10.8681ZM10.9214 12.6073L11.2766 12.2554C11.1041 12.0813 10.8309 12.0579 10.6314 12.2L10.9214 12.6073ZM10.8056 12.6897L11.0706 13.1137C11.0792 13.1084 11.0875 13.1028 11.0957 13.097L10.8056 12.6897ZM2.85662 11.8515L3.21214 11.4999L2.85662 11.8515ZM12.6921 10.7618L12.2692 10.4951C12.2653 10.5012 12.2616 10.5074 12.258 10.5137L12.6921 10.7618ZM14.4133 16.1315L14.7685 15.7795L14.4133 16.1315ZM16.1457 14.415L15.7905 14.7669L16.1457 14.415ZM10.1687 4.51143L9.8144 4.86421L10.1687 4.51143ZM10.1687 10.1787L9.8144 9.82588L10.1687 10.1787ZM12.2762 11.22L15.7905 14.7669L16.5009 14.063L12.9866 10.5162L12.2762 11.22ZM14.7685 15.7795L11.2766 12.2554L10.5662 12.9592L14.0581 16.4834L14.7685 15.7795ZM10.6314 12.2L10.5156 12.2825L11.0957 13.097L11.2115 13.0145L10.6314 12.2ZM10.5406 12.2657C9.50439 12.9134 8.44019 13.2301 7.34504 13.2301V14.2301C8.64506 14.2301 9.89094 13.8511 11.0706 13.1137L10.5406 12.2657ZM7.34504 13.2301C5.7283 13.2301 4.35515 12.6557 3.21214 11.4999L2.50109 12.203C3.83101 13.5479 5.45982 14.2301 7.34504 14.2301V13.2301ZM3.21214 11.4999C2.06848 10.3434 1.5 8.96273 1.5 7.34504H0.5C0.5 9.22732 1.17323 10.8603 2.50109 12.203L3.21214 11.4999ZM1.5 7.34504C1.5 5.72712 2.0686 4.35376 3.21118 3.21118L2.50407 2.50407C1.17374 3.83441 0.5 5.46221 0.5 7.34504H1.5ZM3.21118 3.21118C4.35376 2.0686 5.72712 1.5 7.34504 1.5V0.5C5.46221 0.5 3.83441 1.17374 2.50407 2.50407L3.21118 3.21118ZM7.34504 1.5C8.96296 1.5 10.3363 2.0686 11.4789 3.21118L12.186 2.50407C10.8557 1.17374 9.22787 0.5 7.34504 0.5V1.5ZM11.4789 3.21118C12.6215 4.35376 13.1901 5.72712 13.1901 7.34504H14.1901C14.1901 5.46221 13.5163 3.83441 12.186 2.50407L11.4789 3.21118ZM13.1901 7.34504C13.1901 8.47052 12.8846 9.51904 12.2692 10.4951L13.1151 11.0284C13.829 9.89616 14.1901 8.66333 14.1901 7.34504H13.1901ZM12.258 10.5137L12.1973 10.62L13.0655 11.1162L13.1263 11.0099L12.258 10.5137ZM15.7882 15.7819C15.5063 16.0638 15.049 16.0627 14.7685 15.7795L14.0581 16.4834C14.7286 17.1601 15.8216 17.1627 16.4953 16.489L15.7882 15.7819ZM15.7905 14.7669C16.0692 15.0482 16.0682 15.5019 15.7882 15.7819L16.4953 16.489C17.1646 15.8197 17.1671 14.7354 16.5009 14.063L15.7905 14.7669ZM10.5231 4.15866C9.65254 3.28431 8.58851 2.84504 7.34754 2.84504V3.84504C8.32503 3.84504 9.13331 4.18012 9.8144 4.86421L10.5231 4.15866ZM7.34754 2.84504C6.10657 2.84504 5.04253 3.28431 4.17202 4.15866L4.88067 4.86421C5.56177 4.18012 6.37004 3.84504 7.34754 3.84504V2.84504ZM4.17202 4.15866C3.30159 5.03292 2.86507 6.1006 2.86507 7.34504H3.86507C3.86507 6.36125 4.1995 5.54839 4.88067 4.86421L4.17202 4.15866ZM2.86507 7.34504C2.86507 8.58949 3.30159 9.65717 4.17202 10.5314L4.88067 9.82588C4.1995 9.1417 3.86507 8.32883 3.86507 7.34504H2.86507ZM4.17202 10.5314C5.04253 11.4058 6.10657 11.845 7.34754 11.845V10.845C6.37004 10.845 5.56177 10.51 4.88067 9.82588L4.17202 10.5314ZM7.34754 11.845C8.58851 11.845 9.65254 11.4058 10.5231 10.5314L9.8144 9.82588C9.13331 10.51 8.32503 10.845 7.34754 10.845V11.845ZM10.5231 10.5314C11.4121 9.63848 11.8651 8.57265 11.8651 7.34504H10.8651C10.8651 8.29707 10.5248 9.11231 9.8144 9.82588L10.5231 10.5314ZM11.8651 7.34504C11.8651 6.11744 11.4121 5.05161 10.5231 4.15866L9.8144 4.86421C10.5248 5.57778 10.8651 6.39301 10.8651 7.34504H11.8651Z" fill="white"/>
</svg>
