<svg width="20" height="20" viewBox="0 0 20 20" fill="none" xmlns="http://www.w3.org/2000/svg">
<path d="M13.5083 13.3333H6.49166C6.21465 13.3337 5.94319 13.2557 5.7087 13.1082C5.47421 12.9607 5.28628 12.7498 5.16666 12.5C5.02664 12.2035 4.9727 11.8737 5.01101 11.5481C5.04932 11.2225 5.17833 10.9142 5.38333 10.6583L8.89166 6.40831C9.02934 6.24945 9.19956 6.12205 9.39079 6.03473C9.58202 5.94741 9.78978 5.90222 10 5.90222C10.2102 5.90222 10.418 5.94741 10.6092 6.03473C10.8004 6.12205 10.9706 6.24945 11.1083 6.40831L14.6167 10.6583C14.8217 10.9142 14.9507 11.2225 14.989 11.5481C15.0273 11.8737 14.9734 12.2035 14.8333 12.5C14.7137 12.7498 14.5258 12.9607 14.2913 13.1082C14.0568 13.2557 13.7853 13.3337 13.5083 13.3333Z" fill="#B872CD"/>
</svg>
